<svg width="36" height="36" viewBox="0 0 36 36" fill="none" xmlns="http://www.w3.org/2000/svg">
<g clip-path="url(#clip0_158_161)">
<path d="M5.625 7.875C5.32663 7.875 5.04048 7.75647 4.8295 7.5455C4.61853 7.33452 4.5 7.04837 4.5 6.75C4.5 6.45163 4.61853 6.16548 4.8295 5.9545C5.04048 5.74353 5.32663 5.625 5.625 5.625H30.375C30.6734 5.625 30.9595 5.74353 31.1705 5.9545C31.3815 6.16548 31.5 6.45163 31.5 6.75C31.5 7.04837 31.3815 7.33452 31.1705 7.5455C30.9595 7.75647 30.6734 7.875 30.375 7.875H5.625ZM10.125 3.375C9.82663 3.375 9.54048 3.25647 9.3295 3.0455C9.11853 2.83452 9 2.54837 9 2.25C9 1.95163 9.11853 1.66548 9.3295 1.4545C9.54048 1.24353 9.82663 1.125 10.125 1.125H25.875C26.1734 1.125 26.4595 1.24353 26.6705 1.4545C26.8815 1.66548 27 1.95163 27 2.25C27 2.54837 26.8815 2.83452 26.6705 3.0455C26.4595 3.25647 26.1734 3.375 25.875 3.375H10.125ZM0 29.25C0 30.1451 0.355579 31.0036 0.988515 31.6365C1.62145 32.2694 2.47989 32.625 3.375 32.625H32.625C33.5201 32.625 34.3786 32.2694 35.0115 31.6365C35.6444 31.0036 36 30.1451 36 29.25V13.5C36 12.6049 35.6444 11.7464 35.0115 11.1135C34.3786 10.4806 33.5201 10.125 32.625 10.125H3.375C2.47989 10.125 1.62145 10.4806 0.988515 11.1135C0.355579 11.7464 0 12.6049 0 13.5L0 29.25ZM3.375 30.375C3.07663 30.375 2.79048 30.2565 2.5795 30.0455C2.36853 29.8345 2.25 29.5484 2.25 29.25V13.5C2.25 13.2016 2.36853 12.9155 2.5795 12.7045C2.79048 12.4935 3.07663 12.375 3.375 12.375H32.625C32.9234 12.375 33.2095 12.4935 33.4205 12.7045C33.6315 12.9155 33.75 13.2016 33.75 13.5V29.25C33.75 29.5484 33.6315 29.8345 33.4205 30.0455C33.2095 30.2565 32.9234 30.375 32.625 30.375H3.375Z" fill="#908294"/>
</g>
<defs>
<clipPath id="clip0_158_161">
<rect width="36" height="36" fill="white"/>
</clipPath>
</defs>
</svg>
