<svg aria-hidden="true" style="position: absolute; width: 0; height: 0; overflow: hidden;" version="1.1" xmlns="http://www.w3.org/2000/svg" xmlns:xlink="http://www.w3.org/1999/xlink">
<defs>
<symbol id="icon-g" viewBox="0 0 34 32">
<path d="M2.545 7.98c0 2.716 0.922 4.676 2.738 5.827 1.489 0.945 3.215 1.087 4.113 1.087 0.218 0 0.394-0.011 0.515-0.018 0 0-0.285 1.826 1.090 3.629h-0.063c-2.382 0-10.149 0.489-10.149 6.776 0 6.393 7.134 6.718 8.566 6.718 0.113 0 0.179-0.004 0.179-0.004 0.015 0 0.116 0.004 0.292 0.004 0.918 0 3.293-0.113 5.497-1.169 2.86-1.364 4.311-3.744 4.311-7.064 0-3.207-2.21-5.116-3.823-6.513-0.985-0.853-1.836-1.587-1.836-2.302 0-0.727 0.623-1.275 1.408-1.967 1.273-1.118 2.474-2.713 2.474-5.727 0-2.649-0.349-4.429-2.502-5.558 0.224-0.113 1.018-0.195 1.41-0.249 1.166-0.156 2.871-0.335 2.871-1.271v-0.18h-8.497c-0.085 0.004-8.593 0.313-8.593 7.98zM16.262 24.367c0.163 2.556-2.060 4.442-5.399 4.68-3.39 0.245-6.18-1.256-6.343-3.811-0.079-1.229 0.469-2.429 1.543-3.387 1.088-0.969 2.583-1.569 4.209-1.687 0.192-0.011 0.382-0.022 0.573-0.022 3.139 0.002 5.264 1.816 5.417 4.227zM14.043 6.229c0.833 2.887-0.425 5.902-2.431 6.46-0.231 0.063-0.47 0.095-0.71 0.095-1.837 0-3.656-1.829-4.333-4.351-0.377-1.411-0.346-2.651 0.087-3.84 0.423-1.173 1.188-1.96 2.149-2.227 0.231-0.064 0.469-0.096 0.711-0.096 2.217 0 3.644 0.905 4.527 3.96zM28.432 12.364v-5.455h-3.695v5.455h-5.543v3.636h5.543v5.455h3.695v-5.455h5.543v-3.636h-5.543z"></path>
</symbol>
<symbol id="icon-facebook" viewBox="0 0 18 32">
<path d="M11.569 32v-14.573h4.914l0.73-5.706h-5.645v-3.634c0-1.646 0.459-2.774 2.82-2.774h2.993v-5.087c-1.456-0.156-2.92-0.232-4.384-0.226-4.344 0-7.326 2.653-7.326 7.523v4.187h-4.882v5.706h4.893v14.584h5.886z"></path>
</symbol>
<symbol id="icon-twitter" viewBox="0 0 38 32">
<path d="M33.587 8.375c0.025 0.333 0.025 0.665 0.025 0.996 0 10.143-7.72 21.831-21.829 21.831-4.347 0-8.385-1.259-11.783-3.446 0.617 0.070 1.211 0.095 1.853 0.095 3.453 0.008 6.809-1.146 9.526-3.278-1.601-0.029-3.153-0.557-4.44-1.511s-2.243-2.285-2.736-3.809c0.474 0.070 0.95 0.118 1.45 0.118 0.688 0 1.379-0.095 2.021-0.261-1.738-0.351-3.3-1.293-4.422-2.665s-1.733-3.092-1.731-4.864v-0.095c1.023 0.569 2.21 0.926 3.467 0.973-1.053-0.7-1.917-1.649-2.514-2.764s-0.909-2.36-0.907-3.624c0-1.425 0.379-2.731 1.044-3.87 1.928 2.371 4.332 4.312 7.058 5.695s5.711 2.178 8.763 2.334c-0.118-0.571-0.19-1.164-0.19-1.758-0.001-1.008 0.198-2.006 0.583-2.937s0.951-1.777 1.663-2.49c0.713-0.713 1.558-1.278 2.49-1.663s1.929-0.584 2.937-0.583c2.209 0 4.204 0.926 5.606 2.423 1.718-0.332 3.365-0.959 4.869-1.853-0.573 1.773-1.772 3.276-3.373 4.229 1.523-0.174 3.012-0.574 4.417-1.189-1.049 1.53-2.349 2.871-3.846 3.968z"></path>
</symbol>
<symbol id="icon-youtube" viewBox="0 0 45 32">
<path d="M43.571 4.896c-0.253-0.939-0.748-1.796-1.435-2.484s-1.542-1.185-2.481-1.44c-3.48-0.956-17.402-0.971-17.402-0.971s-13.92-0.016-17.402 0.898c-0.938 0.267-1.792 0.771-2.479 1.463s-1.185 1.549-1.446 2.489c-0.918 3.48-0.927 10.698-0.927 10.698s-0.009 7.253 0.902 10.698c0.511 1.904 2.011 3.409 3.918 3.922 3.516 0.956 17.4 0.971 17.4 0.971s13.922 0.016 17.402-0.896c0.939-0.255 1.795-0.75 2.484-1.437s1.186-1.542 1.443-2.48c0.92-3.478 0.927-10.693 0.927-10.693s0.044-7.256-0.905-10.736zM17.8 22.233l0.011-13.333 11.571 6.678-11.582 6.656z"></path>
</symbol>
<symbol id="icon-bi" viewBox="0 0 36 36">
<path fill="#908294" d="M5.625 7.875C5.32663 7.875 5.04048 7.75647 4.8295 7.5455C4.61853 7.33452 4.5 7.04837 4.5 6.75C4.5 6.45163 4.61853 6.16548 4.8295 5.9545C5.04048 5.74353 5.32663 5.625 5.625 5.625H30.375C30.6734 5.625 30.9595 5.74353 31.1705 5.9545C31.3815 6.16548 31.5 6.45163 31.5 6.75C31.5 7.04837 31.3815 7.33452 31.1705 7.5455C30.9595 7.75647 30.6734 7.875 30.375 7.875H5.625ZM10.125 3.375C9.82663 3.375 9.54048 3.25647 9.3295 3.0455C9.11853 2.83452 9 2.54837 9 2.25C9 1.95163 9.11853 1.66548 9.3295 1.4545C9.54048 1.24353 9.82663 1.125 10.125 1.125H25.875C26.1734 1.125 26.4595 1.24353 26.6705 1.4545C26.8815 1.66548 27 1.95163 27 2.25C27 2.54837 26.8815 2.83452 26.6705 3.0455C26.4595 3.25647 26.1734 3.375 25.875 3.375H10.125ZM0 29.25C0 30.1451 0.355579 31.0036 0.988515 31.6365C1.62145 32.2694 2.47989 32.625 3.375 32.625H32.625C33.5201 32.625 34.3786 32.2694 35.0115 31.6365C35.6444 31.0036 36 30.1451 36 29.25V13.5C36 12.6049 35.6444 11.7464 35.0115 11.1135C34.3786 10.4806 33.5201 10.125 32.625 10.125H3.375C2.47989 10.125 1.62145 10.4806 0.988515 11.1135C0.355579 11.7464 0 12.6049 0 13.5L0 29.25ZM3.375 30.375C3.07663 30.375 2.79048 30.2565 2.5795 30.0455C2.36853 29.8345 2.25 29.5484 2.25 29.25V13.5C2.25 13.2016 2.36853 12.9155 2.5795 12.7045C2.79048 12.4935 3.07663 12.375 3.375 12.375H32.625C32.9234 12.375 33.2095 12.4935 33.4205 12.7045C33.6315 12.9155 33.75 13.2016 33.75 13.5V29.25C33.75 29.5484 33.6315 29.8345 33.4205 30.0455C33.2095 30.2565 32.9234 30.375 32.625 30.375H3.375Z"/>
</symbol>
<symbol id="icon-gram" viewBox="0 0 28 32">
<path fill="none" stroke="#908294" style="stroke: var(--color3, #908294)" stroke-linejoin="round" stroke-linecap="butt" stroke-miterlimit="4" stroke-width="1.7778" d="M26.815 8.592l-12.593-7.407-12.593 7.407v14.815l12.593 7.407 12.593-7.407v-14.815z"></path>
<path fill="none" stroke="#908294" style="stroke: var(--color3, #908294)" stroke-linejoin="round" stroke-linecap="round" stroke-miterlimit="4" stroke-width="1.7778" d="M14.222 14.518v5.926"></path>
<path fill="none" stroke="#908294" style="stroke: var(--color3, #908294)" stroke-linejoin="round" stroke-linecap="round" stroke-miterlimit="4" stroke-width="1.7778" d="M20.148 11.556v8.889"></path>
<path fill="none" stroke="#908294" style="stroke: var(--color3, #908294)" stroke-linejoin="round" stroke-linecap="round" stroke-miterlimit="4" stroke-width="1.7778" d="M8.296 17.481v2.963"></path>
</symbol>
<symbol id="icon-plus" viewBox="0 0 32 32">
<path fill="#908294" style="fill: var(--color3, #908294)" d="M14.535 9.732l0.289-0.008h11.765c1.302-0 2.555 0.498 3.501 1.392s1.515 2.116 1.589 3.416l0.008 0.29v11.765c0 1.302-0.498 2.555-1.392 3.502s-2.117 1.515-3.417 1.589l-0.289 0.008h-11.765c-1.302 0-2.555-0.498-3.502-1.392s-1.515-2.117-1.589-3.417l-0.008-0.287v-11.765c-0-1.302 0.498-2.555 1.392-3.502s2.117-1.515 3.417-1.589v-0.002zM26.588 12.077h-11.765c-0.689 0-1.353 0.259-1.859 0.726s-0.82 1.107-0.876 1.793l-0.009 0.226v11.765c0 0.689 0.259 1.353 0.726 1.86s1.107 0.819 1.794 0.876l0.224 0.009h11.765c0.689-0 1.353-0.259 1.86-0.726s0.819-1.108 0.876-1.794l0.009-0.224v-11.765c0-0.728-0.289-1.426-0.804-1.941s-1.213-0.804-1.941-0.804zM20.706 14.431c0.312 0 0.611 0.124 0.832 0.345s0.345 0.52 0.345 0.832v3.918h3.922c0.312 0 0.611 0.124 0.832 0.345s0.345 0.52 0.345 0.832c0 0.312-0.124 0.611-0.345 0.832s-0.52 0.345-0.832 0.345h-3.922v3.925c0 0.312-0.124 0.611-0.345 0.832s-0.52 0.345-0.832 0.345-0.611-0.124-0.832-0.345c-0.221-0.221-0.345-0.52-0.345-0.832v-3.925h-3.922c-0.312 0-0.611-0.124-0.832-0.345s-0.345-0.52-0.345-0.832c0-0.312 0.124-0.611 0.345-0.832s0.52-0.345 0.832-0.345h3.922v-3.918c0-0.312 0.124-0.611 0.345-0.832s0.52-0.345 0.832-0.345zM21.619 3.816l0.081 0.278 1.087 4.060h-2.436l-0.922-3.451c-0.093-0.348-0.254-0.675-0.474-0.961s-0.493-0.526-0.806-0.707c-0.312-0.18-0.657-0.297-1.015-0.344s-0.721-0.023-1.069 0.070l-11.363 3.046c-0.663 0.178-1.236 0.598-1.605 1.177s-0.507 1.276-0.387 1.952l0.050 0.232 3.046 11.363c0.143 0.534 0.444 1.012 0.863 1.373s0.938 0.585 1.487 0.646v2.362c-1.020-0.061-1.998-0.426-2.808-1.050s-1.414-1.475-1.733-2.445l-0.082-0.276-3.045-11.365c-0.337-1.257-0.181-2.596 0.438-3.742s1.652-2.011 2.888-2.42l0.279-0.082 11.363-3.045c1.257-0.337 2.596-0.181 3.742 0.438s2.011 1.652 2.42 2.888v0.002z"></path>
</symbol>
<symbol id="icon-vectorHor" viewBox="0 0 461 32">
<path fill="#794187" style="fill: var(--color1, #794187)" d="M2.667 13.333c-1.473 0-2.667 1.194-2.667 2.667s1.194 2.667 2.667 2.667v-5.333zM460.731 16l-15.397-15.396-15.395 15.396 15.395 15.396 15.397-15.396zM18.476 18.667c1.473 0 2.667-1.194 2.667-2.667s-1.194-2.667-2.667-2.667v5.333zM50.095 13.333c-1.473 0-2.667 1.194-2.667 2.667s1.194 2.667 2.667 2.667v-5.333zM81.714 18.667c1.473 0 2.667-1.194 2.667-2.667s-1.194-2.667-2.667-2.667v5.333zM113.333 13.333c-1.473 0-2.667 1.194-2.667 2.667s1.194 2.667 2.667 2.667v-5.333zM144.952 18.667c1.473 0 2.667-1.194 2.667-2.667s-1.194-2.667-2.667-2.667v5.333zM176.571 13.333c-1.473 0-2.667 1.194-2.667 2.667s1.194 2.667 2.667 2.667v-5.333zM208.19 18.667c1.473 0 2.667-1.194 2.667-2.667s-1.194-2.667-2.667-2.667v5.333zM239.81 13.333c-1.473 0-2.667 1.194-2.667 2.667s1.194 2.667 2.667 2.667v-5.333zM271.429 18.667c1.472 0 2.667-1.194 2.667-2.667s-1.195-2.667-2.667-2.667v5.333zM303.048 13.333c-1.472 0-2.667 1.194-2.667 2.667s1.195 2.667 2.667 2.667v-5.333zM334.667 18.667c1.472 0 2.667-1.194 2.667-2.667s-1.195-2.667-2.667-2.667v5.333zM366.285 13.333c-1.472 0-2.667 1.194-2.667 2.667s1.195 2.667 2.667 2.667v-5.333zM397.904 18.667c1.475 0 2.667-1.194 2.667-2.667s-1.192-2.667-2.667-2.667v5.333zM429.523 13.333c-1.472 0-2.667 1.194-2.667 2.667s1.195 2.667 2.667 2.667v-5.333zM2.667 18.667h15.81v-5.333h-15.81v5.333zM50.095 18.667h31.619v-5.333h-31.619v5.333zM113.333 18.667h31.619v-5.333h-31.619v5.333zM176.571 18.667h31.619v-5.333h-31.619v5.333zM239.81 18.667h31.62v-5.333h-31.62v5.333zM303.048 18.667h31.619v-5.333h-31.619v5.333zM366.285 18.667h31.619v-5.333h-31.619v5.333zM429.523 18.667h15.811v-5.333h-15.811v5.333z"></path>
</symbol>
<symbol id="icon-wallet" viewBox="0 0 35 32">
<path fill="#908294" style="fill: var(--color3, #908294)" d="M34.286 12.571h-1.143v-6.857c0-0.303-0.12-0.594-0.335-0.808s-0.505-0.335-0.808-0.335h-27.429c-0.271 0.004-0.534-0.087-0.743-0.259s-0.351-0.412-0.4-0.678v-0.411c0.049-0.266 0.19-0.507 0.4-0.678s0.473-0.263 0.743-0.259h26.949c0.303 0 0.594-0.12 0.808-0.335s0.335-0.505 0.335-0.808c0-0.303-0.12-0.594-0.335-0.808s-0.505-0.335-0.808-0.335h-26.949c-0.909 0-1.781 0.361-2.424 1.004s-1.004 1.515-1.004 2.424c-0.008 0.137-0.008 0.274 0 0.411v23.509c0.004 0.615 0.13 1.224 0.37 1.791s0.589 1.081 1.027 1.513c0.438 0.432 0.957 0.773 1.528 1.005s1.18 0.348 1.796 0.344h26.137c0.303 0 0.594-0.12 0.808-0.335s0.335-0.505 0.335-0.808v-6.857h1.143c0.303 0 0.594-0.12 0.808-0.335s0.335-0.505 0.335-0.808v-9.143c0-0.303-0.12-0.594-0.335-0.808s-0.505-0.335-0.808-0.335zM30.857 29.714h-24.994c-0.636 0.006-1.248-0.239-1.704-0.682s-0.718-1.048-0.73-1.684v-20.629c0.371 0.107 0.757 0.154 1.143 0.137h26.286v5.714h-8c-1.516 0-2.969 0.602-4.041 1.674s-1.674 2.525-1.674 4.041 0.602 2.969 1.674 4.041c1.072 1.072 2.525 1.674 4.041 1.674h8v5.714zM33.143 21.714h-10.286c-0.909 0-1.781-0.361-2.424-1.004s-1.004-1.515-1.004-2.424c0-0.909 0.361-1.781 1.004-2.424s1.515-1.004 2.424-1.004h10.286v6.857z"></path>
</symbol>
<symbol id="icon-burger" viewBox="0 0 48 32">
<path  d="M1.6 32h44.8v-6.4h-44.8v6.4zM1.6 0v6.4h44.8v-6.4h-44.8zM1.6 19.2h44.8v-6.4h-44.8v6.4z"></path>
</symbol>
<symbol id="icon-cross" viewBox="0 0 32 32">
<path d="M31.708 25.708c-0-0-0-0-0-0l-9.708-9.708 9.708-9.708c0-0 0-0 0-0 0.105-0.105 0.18-0.227 0.229-0.357 0.133-0.356 0.057-0.771-0.229-1.057l-4.586-4.586c-0.286-0.286-0.702-0.361-1.057-0.229-0.13 0.048-0.252 0.124-0.357 0.228 0 0-0 0-0 0l-9.708 9.708-9.708-9.708c-0-0-0-0-0-0-0.105-0.104-0.227-0.18-0.357-0.228-0.356-0.133-0.771-0.057-1.057 0.229l-4.586 4.586c-0.286 0.286-0.361 0.702-0.229 1.057 0.049 0.13 0.124 0.252 0.229 0.357 0 0 0 0 0 0l9.708 9.708-9.708 9.708c-0 0-0 0-0 0-0.104 0.105-0.18 0.227-0.229 0.357-0.133 0.355-0.057 0.771 0.229 1.057l4.586 4.586c0.286 0.286 0.702 0.361 1.057 0.229 0.13-0.049 0.252-0.124 0.357-0.229 0-0 0-0 0-0l9.708-9.708 9.708 9.708c0 0 0 0 0 0 0.105 0.105 0.227 0.18 0.357 0.229 0.356 0.133 0.771 0.057 1.057-0.229l4.586-4.586c0.286-0.286 0.362-0.702 0.229-1.057-0.049-0.13-0.124-0.252-0.229-0.357z"></path>
</symbol>
<symbol id="icon-like" viewBox="0 0 33 32">
<path fill="#bdaac1" style="fill: var(--color1, #bdaac1)" d="M24.209 0c-2.905 0-5.693 1.352-7.513 3.489-1.82-2.137-4.608-3.489-7.513-3.489-5.142 0-9.183 4.040-9.183 9.183 0 6.311 5.677 11.453 14.275 19.267l2.421 2.187 2.421-2.204c8.598-7.797 14.275-12.939 14.275-19.25 0-5.142-4.040-9.183-9.183-9.183zM16.863 25.962l-0.167 0.167-0.167-0.167c-7.947-7.196-13.19-11.954-13.19-16.779 0-3.339 2.504-5.843 5.843-5.843 2.571 0 5.075 1.653 5.96 3.94h3.122c0.868-2.287 3.373-3.94 5.944-3.94 3.339 0 5.843 2.504 5.843 5.843 0 4.825-5.242 9.583-13.19 16.779z"></path>
</symbol>
</defs>
</svg>
