<svg aria-hidden="true" style="position: absolute; width: 0; height: 0; overflow: hidden;" version="1.1" xmlns="http://www.w3.org/2000/svg" xmlns:xlink="http://www.w3.org/1999/xlink">
<defs>
<symbol id="icon-vectorHor" viewBox="0 0 461 32">
<path fill="#794187" style="fill: var(--color1, #794187)" d="M2.667 13.333c-1.473 0-2.667 1.194-2.667 2.667s1.194 2.667 2.667 2.667v-5.333zM460.731 16l-15.397-15.396-15.395 15.396 15.395 15.396 15.397-15.396zM18.476 18.667c1.473 0 2.667-1.194 2.667-2.667s-1.194-2.667-2.667-2.667v5.333zM50.095 13.333c-1.473 0-2.667 1.194-2.667 2.667s1.194 2.667 2.667 2.667v-5.333zM81.714 18.667c1.473 0 2.667-1.194 2.667-2.667s-1.194-2.667-2.667-2.667v5.333zM113.333 13.333c-1.473 0-2.667 1.194-2.667 2.667s1.194 2.667 2.667 2.667v-5.333zM144.952 18.667c1.473 0 2.667-1.194 2.667-2.667s-1.194-2.667-2.667-2.667v5.333zM176.571 13.333c-1.473 0-2.667 1.194-2.667 2.667s1.194 2.667 2.667 2.667v-5.333zM208.19 18.667c1.473 0 2.667-1.194 2.667-2.667s-1.194-2.667-2.667-2.667v5.333zM239.81 13.333c-1.473 0-2.667 1.194-2.667 2.667s1.194 2.667 2.667 2.667v-5.333zM271.429 18.667c1.472 0 2.667-1.194 2.667-2.667s-1.195-2.667-2.667-2.667v5.333zM303.048 13.333c-1.472 0-2.667 1.194-2.667 2.667s1.195 2.667 2.667 2.667v-5.333zM334.667 18.667c1.472 0 2.667-1.194 2.667-2.667s-1.195-2.667-2.667-2.667v5.333zM366.285 13.333c-1.472 0-2.667 1.194-2.667 2.667s1.195 2.667 2.667 2.667v-5.333zM397.904 18.667c1.475 0 2.667-1.194 2.667-2.667s-1.192-2.667-2.667-2.667v5.333zM429.523 13.333c-1.472 0-2.667 1.194-2.667 2.667s1.195 2.667 2.667 2.667v-5.333zM2.667 18.667h15.81v-5.333h-15.81v5.333zM50.095 18.667h31.619v-5.333h-31.619v5.333zM113.333 18.667h31.619v-5.333h-31.619v5.333zM176.571 18.667h31.619v-5.333h-31.619v5.333zM239.81 18.667h31.62v-5.333h-31.62v5.333zM303.048 18.667h31.619v-5.333h-31.619v5.333zM366.285 18.667h31.619v-5.333h-31.619v5.333zM429.523 18.667h15.811v-5.333h-15.811v5.333z"></path>
</symbol>
</defs>
</svg>
